<svg width="100" height="100" viewBox="0 0 100 100" fill="none" xmlns="http://www.w3.org/2000/svg">
<path d="M39.0625 54.6874C39.0625 55.3054 38.8792 55.9096 38.5358 56.4235C38.1924 56.9374 37.7044 57.338 37.1334 57.5745C36.5623 57.811 35.934 57.8729 35.3278 57.7523C34.7216 57.6317 34.1648 57.3341 33.7278 56.8971C33.2907 56.46 32.9931 55.9032 32.8725 55.297C32.7519 54.6908 32.8138 54.0625 33.0503 53.4915C33.2869 52.9205 33.6874 52.4324 34.2013 52.089C34.7152 51.7456 35.3194 51.5624 35.9375 51.5624C36.7663 51.5624 37.5611 51.8916 38.1472 52.4776C38.7332 53.0637 39.0625 53.8586 39.0625 54.6874ZM64.0625 57.8124C64.6805 57.8124 65.2847 57.6291 65.7986 57.2857C66.3125 56.9423 66.7131 56.4543 66.9496 55.8832C67.1861 55.3122 67.248 54.6839 67.1274 54.0777C67.0068 53.4715 66.7092 52.9147 66.2722 52.4776C65.8351 52.0406 65.2783 51.743 64.6721 51.6224C64.0659 51.5018 63.4376 51.5637 62.8666 51.8002C62.2956 52.0368 61.8075 52.4373 61.4641 52.9512C61.1207 53.4651 60.9375 54.0693 60.9375 54.6874C60.9375 55.5162 61.2667 56.311 61.8528 56.8971C62.4388 57.4831 63.2337 57.8124 64.0625 57.8124ZM89.4296 54.2538C88.817 54.536 88.151 54.6838 87.4765 54.6874C86.7703 54.6856 86.0739 54.5221 85.4408 54.2092C84.8076 53.8964 84.2546 53.4426 83.8242 52.8827L82.8125 51.5975V71.8749C82.8125 75.6045 81.3309 79.1813 78.6936 81.8186C76.0564 84.4558 72.4796 85.9374 68.75 85.9374H31.25C27.5204 85.9374 23.9435 84.4558 21.3063 81.8186C18.669 79.1813 17.1875 75.6045 17.1875 71.8749V51.5975L16.1992 52.8749C15.7678 53.4361 15.2136 53.8913 14.5792 54.2054C13.9448 54.5196 13.2469 54.6844 12.539 54.6874C11.8645 54.6838 11.1985 54.536 10.5859 54.2538C9.62227 53.8308 8.83205 53.0913 8.34613 52.1579C7.86021 51.2244 7.70776 50.1529 7.91403 49.121L14.3281 14.746C14.4459 14.118 14.6908 13.5208 15.0479 12.991C15.4049 12.4611 15.8664 12.0099 16.4042 11.6649C16.942 11.3199 17.5446 11.0885 18.175 10.9849C18.8054 10.8813 19.4504 10.9076 20.0703 11.0624H20.1328L40.8515 17.1874H59.1484L79.8828 11.0936H79.9453C80.5652 10.9389 81.2101 10.9125 81.8406 11.0162C82.471 11.1198 83.0736 11.3512 83.6114 11.6961C84.1491 12.0411 84.6107 12.4924 84.9677 13.0222C85.3247 13.552 85.5696 14.1493 85.6875 14.7772L92.1015 49.1522C92.3008 50.1795 92.1449 51.2441 91.6594 52.1711C91.1739 53.0981 90.3876 53.8325 89.4296 54.2538ZM37.9882 19.6014L19.2734 14.1014C19.1554 14.0752 19.0349 14.0621 18.914 14.0624C18.5505 14.0634 18.1987 14.1911 17.9192 14.4235C17.6397 14.6559 17.45 14.9786 17.3828 15.3358L10.9687 49.7108C10.9022 50.0552 10.9536 50.412 11.1146 50.7238C11.2755 51.0355 11.5367 51.2839 11.856 51.4292C12.1754 51.5744 12.5343 51.6079 12.875 51.5244C13.2157 51.4408 13.5184 51.2451 13.7343 50.9686L37.9882 19.6014ZM79.6875 47.5585L58.5937 20.3124H41.4062L20.3125 47.5585V71.8749C20.3125 74.7757 21.4648 77.5577 23.516 79.6088C25.5672 81.66 28.3492 82.8124 31.25 82.8124H48.4375V75.6483L42.6445 69.8553C42.3513 69.5621 42.1866 69.1645 42.1866 68.7499C42.1866 68.3352 42.3513 67.9376 42.6445 67.6444C42.9377 67.3512 43.3353 67.1865 43.75 67.1865C44.1646 67.1865 44.5622 67.3512 44.8554 67.6444L50 72.7889L55.1445 67.6444C55.4377 67.3512 55.8353 67.1865 56.25 67.1865C56.6646 67.1865 57.0622 67.3512 57.3554 67.6444C57.6486 67.9376 57.8133 68.3352 57.8133 68.7499C57.8133 69.1645 57.6486 69.5621 57.3554 69.8553L51.5625 75.6483V82.8124H68.75C71.6508 82.8124 74.4328 81.66 76.4839 79.6088C78.5351 77.5577 79.6875 74.7757 79.6875 71.8749V47.5585ZM89.0312 49.6991L82.6171 15.3241C82.5784 15.1167 82.498 14.9193 82.3808 14.7438C82.2636 14.5683 82.1122 14.4184 81.9355 14.3031C81.7588 14.1877 81.5606 14.1093 81.3528 14.0727C81.1451 14.036 80.932 14.0418 80.7265 14.0897L62.0117 19.6014L86.2734 50.9608C86.4908 51.2336 86.7932 51.4259 87.1324 51.507C87.4717 51.588 87.8284 51.5532 88.1456 51.4081C88.4628 51.263 88.7223 51.0159 88.8828 50.7061C89.0433 50.3964 89.0955 50.0419 89.0312 49.6991Z" fill="#034833"/>
</svg>
