<svg width="101" height="100" viewBox="0 0 101 100" fill="none" xmlns="http://www.w3.org/2000/svg">
<path d="M21.0645 88.5416V83.5625C21.0645 75.5333 27.1749 69.1104 35.2145 69.1104C44.8603 77.1396 54.5068 77.1396 64.154 69.1104C72.1936 69.1104 78.9457 75.5333 78.9457 83.5625V88.5416M59.652 41.9708C59.652 43.7375 58.204 45.1833 56.4374 45.1833C54.6707 45.1833 53.2207 43.7375 53.2207 41.9708C53.2207 40.2041 54.6686 38.7583 56.4374 38.7583C58.2061 38.7583 59.652 40.2041 59.652 41.9708ZM46.7915 41.9708C46.7915 43.7375 45.3436 45.1833 43.5749 45.1833C41.8061 45.1833 40.3582 43.7375 40.3582 41.9708C40.3582 40.2041 41.8061 38.7583 43.5749 38.7583C45.3436 38.7583 46.7915 40.2041 46.7915 41.9708Z" stroke="#034833" stroke-width="3" stroke-linecap="round" stroke-linejoin="round"/>
<path d="M32.3188 43.577C32.3188 56.4228 40.0376 64.2916 49.6834 64.2916C59.3293 64.2916 67.6918 56.4228 67.6918 43.577C67.6918 37.152 66.0834 33.9416 66.0834 33.9416L59.6522 27.5166C59.6522 27.5166 40.3605 30.7291 33.9272 33.9416C33.9272 33.9416 32.3188 37.152 32.3188 43.577Z" stroke="#034833" stroke-width="3" stroke-linecap="round" stroke-linejoin="round"/>
<path d="M44.8604 53.5332C47.9145 55.1374 51.452 55.1374 54.5062 53.5332" stroke="#034833" stroke-width="3" stroke-linecap="round" stroke-linejoin="round"/>
<path d="M24.2815 66.0585C17.8502 56.4231 21.3856 52.7293 24.4419 45.1835C27.0148 38.4377 24.121 34.746 26.5315 25.9127C28.944 17.0793 38.271 11.4585 48.5585 11.4585C57.2398 11.4585 61.421 16.2772 61.421 16.2772C68.1731 16.9189 73.319 22.5397 73.319 29.1231C73.9627 40.6856 74.9273 40.6856 78.7856 49.6793C81.6794 56.2627 80.394 60.6002 75.7315 65.8981" stroke="#034833" stroke-width="3" stroke-linecap="round" stroke-linejoin="round"/>
<path d="M75.729 65.8979C74.1207 67.5771 72.8082 69.3 71.4665 71.0188M24.2811 66.0584C26.1895 68.6729 26.929 69.4313 28.1561 70.9646M21.0645 88.5417H78.9457" stroke="#034833" stroke-width="3" stroke-linecap="round" stroke-linejoin="round"/>
</svg>
