<svg width="115" height="40" viewBox="0 0 115 40" fill="none" xmlns="http://www.w3.org/2000/svg">
<path d="M12.4535 39.648C10.4735 39.648 8.56545 39.432 6.72945 39C4.89345 38.568 3.30945 37.92 1.97745 37.056L5.21745 30.63C6.26145 31.35 7.37745 31.854 8.56545 32.142C9.75345 32.394 10.9955 32.52 12.2915 32.52C15.5315 32.52 18.1055 31.53 20.0135 29.55C21.9575 27.57 22.9295 24.636 22.9295 20.748C22.9295 20.1 22.9115 19.38 22.8755 18.588C22.8395 17.796 22.7495 17.004 22.6055 16.212L24.9815 18.48C24.3695 19.884 23.5055 21.072 22.3895 22.044C21.2735 22.98 19.9775 23.7 18.5015 24.204C17.0255 24.672 15.3695 24.906 13.5335 24.906C11.1215 24.906 8.92545 24.42 6.94545 23.448C5.00145 22.476 3.43545 21.108 2.24745 19.344C1.09545 17.58 0.519453 15.51 0.519453 13.134C0.519453 10.542 1.14945 8.31 2.40945 6.438C3.70545 4.566 5.43345 3.126 7.59345 2.118C9.78945 1.074 12.2015 0.551999 14.8295 0.551999C18.3215 0.551999 21.3275 1.272 23.8475 2.712C26.3675 4.152 28.3115 6.258 29.6795 9.03C31.0475 11.766 31.7315 15.186 31.7315 19.29C31.7315 23.646 30.9035 27.336 29.2475 30.36C27.6275 33.384 25.3775 35.688 22.4975 37.272C19.6175 38.856 16.2695 39.648 12.4535 39.648ZM15.4775 18.372C16.7375 18.372 17.8535 18.138 18.8255 17.67C19.8335 17.166 20.6075 16.482 21.1475 15.618C21.6875 14.754 21.9575 13.782 21.9575 12.702C21.9575 11.622 21.6875 10.668 21.1475 9.84C20.6435 8.976 19.9055 8.31 18.9335 7.842C17.9615 7.338 16.7735 7.086 15.3695 7.086C14.1095 7.086 13.0115 7.32 12.0755 7.788C11.1395 8.22 10.4015 8.868 9.86145 9.732C9.32145 10.56 9.05145 11.55 9.05145 12.702C9.05145 14.43 9.62745 15.816 10.7795 16.86C11.9675 17.868 13.5335 18.372 15.4775 18.372ZM46.8363 39.648C44.8563 39.648 42.9483 39.432 41.1123 39C39.2763 38.568 37.6923 37.92 36.3603 37.056L39.6003 30.63C40.6443 31.35 41.7603 31.854 42.9483 32.142C44.1363 32.394 45.3783 32.52 46.6743 32.52C49.9143 32.52 52.4883 31.53 54.3963 29.55C56.3403 27.57 57.3123 24.636 57.3123 20.748C57.3123 20.1 57.2943 19.38 57.2583 18.588C57.2223 17.796 57.1323 17.004 56.9883 16.212L59.3643 18.48C58.7523 19.884 57.8883 21.072 56.7723 22.044C55.6563 22.98 54.3603 23.7 52.8843 24.204C51.4083 24.672 49.7523 24.906 47.9163 24.906C45.5043 24.906 43.3083 24.42 41.3283 23.448C39.3843 22.476 37.8183 21.108 36.6303 19.344C35.4783 17.58 34.9023 15.51 34.9023 13.134C34.9023 10.542 35.5323 8.31 36.7923 6.438C38.0883 4.566 39.8163 3.126 41.9763 2.118C44.1723 1.074 46.5843 0.551999 49.2123 0.551999C52.7043 0.551999 55.7103 1.272 58.2303 2.712C60.7503 4.152 62.6943 6.258 64.0623 9.03C65.4303 11.766 66.1143 15.186 66.1143 19.29C66.1143 23.646 65.2863 27.336 63.6303 30.36C62.0103 33.384 59.7603 35.688 56.8803 37.272C54.0003 38.856 50.6523 39.648 46.8363 39.648ZM49.8603 18.372C51.1203 18.372 52.2363 18.138 53.2083 17.67C54.2163 17.166 54.9903 16.482 55.5303 15.618C56.0703 14.754 56.3403 13.782 56.3403 12.702C56.3403 11.622 56.0703 10.668 55.5303 9.84C55.0263 8.976 54.2883 8.31 53.3163 7.842C52.3443 7.338 51.1563 7.086 49.7523 7.086C48.4923 7.086 47.3943 7.32 46.4583 7.788C45.5223 8.22 44.7843 8.868 44.2443 9.732C43.7043 10.56 43.4343 11.55 43.4343 12.702C43.4343 14.43 44.0103 15.816 45.1623 16.86C46.3503 17.868 47.9163 18.372 49.8603 18.372ZM75.7651 39L101.577 1.2H108.003L82.1911 39H75.7651ZM79.0591 21.612C77.2231 21.612 75.6031 21.198 74.1991 20.37C72.7951 19.506 71.6791 18.3 70.8511 16.752C70.0591 15.168 69.6631 13.314 69.6631 11.19C69.6631 9.066 70.0591 7.23 70.8511 5.682C71.6791 4.134 72.7951 2.928 74.1991 2.064C75.6031 1.2 77.2231 0.768 79.0591 0.768C80.8951 0.768 82.5151 1.2 83.9191 2.064C85.3231 2.928 86.4211 4.134 87.2131 5.682C88.0051 7.194 88.4011 9.03 88.4011 11.19C88.4011 13.314 88.0051 15.168 87.2131 16.752C86.4211 18.3 85.3231 19.506 83.9191 20.37C82.5151 21.198 80.8951 21.612 79.0591 21.612ZM79.0591 17.184C80.2471 17.184 81.2011 16.698 81.9211 15.726C82.6411 14.718 83.0011 13.206 83.0011 11.19C83.0011 9.174 82.6411 7.68 81.9211 6.708C81.2011 5.7 80.2471 5.196 79.0591 5.196C77.9071 5.196 76.9531 5.7 76.1971 6.708C75.4771 7.716 75.1171 9.21 75.1171 11.19C75.1171 13.17 75.4771 14.664 76.1971 15.672C76.9531 16.68 77.9071 17.184 79.0591 17.184ZM104.709 39.432C102.909 39.432 101.289 39.018 99.8491 38.19C98.4451 37.326 97.3471 36.12 96.5551 34.572C95.7631 32.988 95.3671 31.134 95.3671 29.01C95.3671 26.886 95.7631 25.05 96.5551 23.502C97.3471 21.954 98.4451 20.748 99.8491 19.884C101.289 19.02 102.909 18.588 104.709 18.588C106.581 18.588 108.219 19.02 109.623 19.884C111.027 20.748 112.125 21.954 112.917 23.502C113.709 25.05 114.105 26.886 114.105 29.01C114.105 31.134 113.709 32.988 112.917 34.572C112.125 36.12 111.027 37.326 109.623 38.19C108.219 39.018 106.581 39.432 104.709 39.432ZM104.709 35.004C105.897 35.004 106.851 34.5 107.571 33.492C108.291 32.484 108.651 30.99 108.651 29.01C108.651 27.03 108.291 25.536 107.571 24.528C106.851 23.52 105.897 23.016 104.709 23.016C103.557 23.016 102.603 23.52 101.847 24.528C101.127 25.5 100.767 26.994 100.767 29.01C100.767 31.026 101.127 32.538 101.847 33.546C102.603 34.518 103.557 35.004 104.709 35.004Z" fill="#94AC55"/>
</svg>
