<svg width="64" height="64" viewBox="0 0 64 64" fill="none" xmlns="http://www.w3.org/2000/svg">
<path d="M58.1871 41.1202L51.5204 52.6668C50.2138 54.9602 47.7871 56.1602 45.3338 56.0002H40.0004V61.3335L33.3338 49.3335L40.0004 37.3335V42.6668H47.5204L41.6004 32.4002L53.1471 25.7335L57.9471 34.0535C59.3338 36.1068 59.5204 38.8535 58.1871 41.1202ZM24.5604 8.16016H37.8938C40.5071 8.16016 42.7738 9.68016 43.8671 11.8668L46.5338 16.5068L51.1471 13.8402L44.1071 25.6002L30.3738 25.8402L34.9871 23.1735L31.2271 16.6402L25.3338 26.9068L13.7604 20.2402L18.5604 11.9202C19.6538 9.70682 21.9204 8.16016 24.5604 8.16016ZM13.4671 52.6935L6.80042 41.1468C5.49375 38.8802 5.68042 36.1602 7.04042 34.1068L9.70708 29.4935L5.09375 26.8268L18.8004 27.0402L25.8671 38.8268L21.2537 36.1602L17.4938 42.6668H29.3338V56.0002H19.7338C18.4844 56.0906 17.2348 55.8286 16.127 55.2441C15.0192 54.6595 14.0976 53.7758 13.4671 52.6935Z" fill="#94AC55"/>
</svg>
