<svg width="72" height="72" viewBox="0 0 72 72" fill="none" xmlns="http://www.w3.org/2000/svg">
<g clip-path="url(#clip0_831_895)">
<path d="M71.8369 32.9063L67.8994 23.0625C67.5653 22.2296 66.9889 21.5163 66.2447 21.0148C65.5006 20.5134 64.623 20.2469 63.7256 20.25H54V18C54 17.4033 53.7629 16.831 53.341 16.409C52.919 15.9871 52.3467 15.75 51.75 15.75H9C7.80653 15.75 6.66193 16.2241 5.81802 17.068C4.97411 17.9119 4.5 19.0565 4.5 20.25V51.75C4.5 52.9435 4.97411 54.0881 5.81802 54.932C6.66193 55.7759 7.80653 56.25 9 56.25H13.7812C14.2769 58.1859 15.4028 59.9018 16.9814 61.1272C18.5601 62.3525 20.5016 63.0177 22.5 63.0177C24.4984 63.0177 26.4399 62.3525 28.0186 61.1272C29.5972 59.9018 30.7231 58.1859 31.2187 56.25H45.2812C45.7769 58.1859 46.9028 59.9018 48.4814 61.1272C50.0601 62.3525 52.0016 63.0177 54 63.0177C55.9984 63.0177 57.9399 62.3525 59.5185 61.1272C61.0972 59.9018 62.2231 58.1859 62.7187 56.25H67.5C68.6935 56.25 69.8381 55.7759 70.682 54.932C71.5259 54.0881 72 52.9435 72 51.75V33.75C72.001 33.4608 71.9456 33.1742 71.8369 32.9063ZM54 24.75H63.7256L66.4256 31.5H54V24.75ZM9 20.25H49.5V38.25H9V20.25ZM22.5 58.5C21.61 58.5 20.74 58.2361 19.9999 57.7416C19.2599 57.2472 18.6831 56.5443 18.3425 55.7221C18.0019 54.8998 17.9128 53.995 18.0865 53.1221C18.2601 52.2492 18.6887 51.4474 19.318 50.818C19.9474 50.1887 20.7492 49.7601 21.6221 49.5865C22.495 49.4128 23.3998 49.5019 24.2221 49.8425C25.0443 50.1831 25.7471 50.7599 26.2416 51.4999C26.7361 52.24 27 53.11 27 54C27 55.1935 26.5259 56.3381 25.682 57.182C24.8381 58.0259 23.6935 58.5 22.5 58.5ZM45.2812 51.75H31.2187C30.7231 49.8141 29.5972 48.0982 28.0186 46.8728C26.4399 45.6475 24.4984 44.9824 22.5 44.9824C20.5016 44.9824 18.5601 45.6475 16.9814 46.8728C15.4028 48.0982 14.2769 49.8141 13.7812 51.75H9V42.75H49.5V46.2122C48.4653 46.8101 47.5596 47.6075 46.8354 48.5581C46.1112 49.5087 45.5829 50.5937 45.2812 51.75ZM54 58.5C53.11 58.5 52.2399 58.2361 51.4999 57.7416C50.7599 57.2472 50.1831 56.5443 49.8425 55.7221C49.5019 54.8998 49.4128 53.995 49.5865 53.1221C49.7601 52.2492 50.1887 51.4474 50.818 50.818C51.4474 50.1887 52.2492 49.7601 53.1221 49.5865C53.995 49.4128 54.8998 49.5019 55.7221 49.8425C56.5443 50.1831 57.2471 50.7599 57.7416 51.4999C58.2361 52.24 58.5 53.11 58.5 54C58.5 55.1935 58.0259 56.3381 57.182 57.182C56.3381 58.0259 55.1935 58.5 54 58.5ZM67.5 51.75H62.7187C62.2171 49.8188 61.0891 48.1085 59.5114 46.887C57.9336 45.6655 55.9953 45.0019 54 45V36H67.5V51.75Z" fill="#94AC55"/>
</g>
<defs>
<clipPath id="clip0_831_895">
<rect width="72" height="72" fill="white"/>
</clipPath>
</defs>
</svg>
