<svg width="82" height="82" viewBox="0 0 82 82" fill="none" xmlns="http://www.w3.org/2000/svg">
<path d="M40.9649 9.00523C40.7208 9.01085 40.4799 9.06101 40.2539 9.15333L10.2461 21.1535C10.2409 21.156 10.2357 21.1584 10.2305 21.1609C10.1746 21.1844 10.1199 21.2104 10.0664 21.2389C10.0075 21.2698 9.95012 21.3035 9.89455 21.3401C9.85168 21.3697 9.80998 21.4009 9.76955 21.4338C9.75105 21.4486 9.73282 21.4638 9.71486 21.4792C9.67021 21.5164 9.6272 21.5555 9.58595 21.5964C9.54078 21.6412 9.49776 21.688 9.45705 21.7369C9.45312 21.7419 9.44921 21.7471 9.44533 21.7521C9.40507 21.8024 9.36727 21.8546 9.33205 21.9085C9.29536 21.964 9.26147 22.0213 9.23048 22.0802C9.2036 22.13 9.17884 22.181 9.15627 22.2329C9.15088 22.2479 9.14567 22.2629 9.14064 22.2781C9.1184 22.3359 9.09885 22.3948 9.08205 22.4543C9.06673 22.5084 9.0537 22.5632 9.04298 22.6184C9.03884 22.6359 9.03493 22.6535 9.03126 22.6712C9.02498 22.7088 9.01977 22.7467 9.01564 22.7847C9.01218 22.8184 9.00957 22.8521 9.00783 22.886C9.00353 22.9334 9.00092 22.9811 9.00001 23.0287C9.00001 23.0262 9.00001 23.0313 9.00001 23.0287V59.0049C9 59.0099 9 59.015 9.00001 59.0201C9.00202 59.1343 9.01378 59.2479 9.03517 59.3601C9.03986 59.3862 9.04507 59.4122 9.0508 59.4381C9.05791 59.4682 9.06573 59.4982 9.07423 59.528C9.08135 59.5582 9.08916 59.5882 9.09767 59.618C9.10848 59.6521 9.12021 59.6858 9.13283 59.7193C9.14388 59.7483 9.1556 59.7769 9.16798 59.8053C9.20924 59.8986 9.25756 59.9887 9.31251 60.0745C9.33124 60.105 9.35078 60.135 9.37111 60.1645C9.39004 60.1902 9.40957 60.2154 9.4297 60.2402C9.44744 60.2632 9.46567 60.2859 9.48439 60.3082C9.60195 60.4442 9.73728 60.5637 9.88673 60.6635C9.90222 60.6738 9.91784 60.6838 9.93361 60.6937C10.0435 60.7636 10.1599 60.8225 10.2813 60.8697L40.2188 72.862C40.4174 72.9393 40.6271 72.9841 40.8399 72.9949C40.8464 72.9963 40.8529 72.9976 40.8594 72.9988C40.8841 72.9993 40.9089 72.9993 40.9336 72.9988C41.2919 73.0104 41.6467 72.9253 41.9609 72.7525L53.2461 68.2407C53.2737 68.2288 53.3011 68.2161 53.3281 68.2029C55.4121 69.9445 58.0869 71 61 71C67.6021 71 73 65.6019 73 58.9998V22.9999C72.9998 22.6025 72.8812 22.2141 72.6593 21.8843C72.4374 21.5545 72.1221 21.2984 71.7539 21.1484L41.7461 9.14826C41.4982 9.04711 41.2326 9.00187 40.9649 9.00523ZM40.9922 13.1536L65.625 23.0013L55.4961 27.0482L31.7266 16.8607L40.9922 13.1536ZM26.4883 18.9544L50.2539 29.1458L40.9922 32.845L16.375 23.0013L26.4883 18.9544ZM13 25.9624L39 36.3607V68.0795L13 57.6613V25.9624ZM69 25.9624V50.0991C66.8721 48.1847 64.0715 47.0051 61 47.0051C54.3979 47.0051 49 52.4032 49 59.0053C49 61.1838 49.5964 63.2239 50.6211 64.9895L43 68.0405V36.3607L53 32.3606V45.0014C53.0003 45.5323 53.2111 46.0413 53.5862 46.4167C53.9612 46.792 54.4698 47.0028 55 47.0028C55.5303 47.0028 56.0389 46.792 56.4139 46.4167C56.789 46.0413 56.9998 45.5323 57 45.0014V30.7592L69 25.9624ZM61 51.0052C65.4409 51.0052 69 54.5644 69 59.0053C69 63.4461 65.4409 67.0052 61 67.0052C56.5592 67.0052 53 63.4461 53 59.0053C53 54.5644 56.5592 51.0052 61 51.0052ZM64.9532 54.0052C64.6641 54.0118 64.3798 54.0812 64.1202 54.2087C63.8605 54.3362 63.6316 54.5187 63.4492 54.7437L59.8828 59.0406L58.4571 57.5954C58.2725 57.4081 58.0528 57.2589 57.8107 57.1568C57.5686 57.0548 57.3087 57.0017 57.046 57.0004C56.7833 56.9992 56.5229 57.0499 56.2799 57.1497C56.0368 57.2495 55.8157 57.3964 55.6294 57.582C55.443 57.7676 55.2951 57.9882 55.194 58.2311C55.0929 58.4741 55.0406 58.7347 55.0402 58.9979C55.0398 59.2612 55.0913 59.5219 55.1916 59.7652C55.292 60.0085 55.4393 60.2296 55.625 60.4157L58.6016 63.4116C58.7966 63.6099 59.0308 63.7653 59.2892 63.8677C59.5476 63.97 59.8244 64.0171 60.102 64.0061C60.3796 63.9951 60.6519 63.9261 60.9014 63.8035C61.1508 63.681 61.372 63.5078 61.5508 63.2947L66.5157 57.3139C66.769 57.0206 66.9318 56.66 66.9842 56.2756C67.0366 55.8913 66.9763 55.5001 66.8107 55.1494C66.6451 54.7988 66.3814 54.5038 66.0516 54.3007C65.7217 54.0976 65.3401 53.9949 64.9532 54.0052Z" fill="#94AC55"/>
</svg>
