<svg width="80" height="80" viewBox="0 0 80 80" fill="none" xmlns="http://www.w3.org/2000/svg">
<path d="M57.9857 42.9766L64.2417 48.0952L71.8484 42.9056C70.7109 55.3464 62.5355 65.9389 50.6634 70.1333L43.4121 64.5171L46.3268 57.0526C52.5828 54.7777 56.9904 49.3748 57.9857 42.9766ZM47.1088 71.1996L39.7865 65.5835L42.7723 58.0479C36.3031 59.0431 29.8338 56.4839 25.7106 51.2943L17.7484 50.7966L14.6915 59.3986C22.2271 69.4224 34.9523 73.9722 47.1088 71.1996ZM13.6962 21.8627C6.51607 32.1709 6.16062 45.6781 12.4877 56.3417L15.6157 47.6686L23.72 48.1663C20.8053 42.3368 21.1607 35.3699 24.8575 29.896L22.8669 22.1471L13.6962 21.8627ZM15.9711 18.8769L25.2129 19.1613L27.2745 26.9812C31.8954 22.4314 38.6491 20.5831 45.0472 22.4314L51.8008 18.0949L49.1705 9.35076C37.0851 5.72513 24.1466 9.56403 15.9711 18.8769ZM52.6539 10.6304L55.2132 19.4456L48.3885 23.7822C54.2179 26.768 57.9857 32.6685 58.2701 39.2799L64.455 44.3985L71.9906 39.2088C71.7062 26.6258 64.0995 15.5356 52.6539 10.6304Z" fill="#94AC55"/>
</svg>
